<?xml version="1.0" encoding="utf-8" standalone="no"?>
<!DOCTYPE svg PUBLIC "-//W3C//DTD SVG 1.1//EN"
  "http://www.w3.org/Graphics/SVG/1.1/DTD/svg11.dtd">
<svg xmlns:xlink="http://www.w3.org/1999/xlink" width="576pt" height="576pt" viewBox="0 0 576 576" xmlns="http://www.w3.org/2000/svg" version="1.1">
 <metadata>
  <rdf:RDF xmlns:dc="http://purl.org/dc/elements/1.1/" xmlns:cc="http://creativecommons.org/ns#" xmlns:rdf="http://www.w3.org/1999/02/22-rdf-syntax-ns#">
   <cc:Work>
    <dc:type rdf:resource="http://purl.org/dc/dcmitype/StillImage"/>
    <dc:date>2024-01-26T19:43:01.509943</dc:date>
    <dc:format>image/svg+xml</dc:format>
    <dc:creator>
     <cc:Agent>
      <dc:title>Matplotlib v3.7.2, https://matplotlib.org/</dc:title>
     </cc:Agent>
    </dc:creator>
   </cc:Work>
  </rdf:RDF>
 </metadata>
 <defs>
  <style type="text/css">*{stroke-linejoin: round; stroke-linecap: butt}</style>
 </defs>
 <g id="figure_1">
  <g id="patch_1">
   <path d="M 0 576 
L 576 576 
L 576 0 
L 0 0 
z
" style="fill: #ffffff"/>
  </g>
  <g id="axes_1">
   <g id="patch_2">
    <path d="M 47.72 534.04 
L 565.2 534.04 
L 565.2 26.88 
L 47.72 26.88 
z
" style="fill: #ffffff"/>
   </g>
   <g id="PathCollection_1">
    <defs>
     <path id="mb288a760de" d="M 0 3 
C 0.795609 3 1.55874 2.683901 2.12132 2.12132 
C 2.683901 1.55874 3 0.795609 3 0 
C 3 -0.795609 2.683901 -1.55874 2.12132 -2.12132 
C 1.55874 -2.683901 0.795609 -3 0 -3 
C -0.795609 -3 -1.55874 -2.683901 -2.12132 -2.12132 
C -2.683901 -1.55874 -3 -0.795609 -3 0 
C -3 0.795609 -2.683901 1.55874 -2.12132 2.12132 
C -1.55874 2.683901 -0.795609 3 0 3 
z
" style="stroke: #008000; stroke-opacity: 0.8"/>
    </defs>
    <g clip-path="url(#pe6463378ed)">
     <use xlink:href="#mb288a760de" x="277.275522" y="222.828182" style="fill: #008000; fill-opacity: 0.8; stroke: #008000; stroke-opacity: 0.8"/>
     <use xlink:href="#mb288a760de" x="177.351354" y="153.67" style="fill: #008000; fill-opacity: 0.8; stroke: #008000; stroke-opacity: 0.8"/>
     <use xlink:href="#mb288a760de" x="256.266718" y="211.301818" style="fill: #008000; fill-opacity: 0.8; stroke: #008000; stroke-opacity: 0.8"/>
     <use xlink:href="#mb288a760de" x="146.685872" y="130.617273" style="fill: #008000; fill-opacity: 0.8; stroke: #008000; stroke-opacity: 0.8"/>
     <use xlink:href="#mb288a760de" x="202.15618" y="222.828182" style="fill: #008000; fill-opacity: 0.8; stroke: #008000; stroke-opacity: 0.8"/>
     <use xlink:href="#mb288a760de" x="162.14533" y="188.249091" style="fill: #008000; fill-opacity: 0.8; stroke: #008000; stroke-opacity: 0.8"/>
     <use xlink:href="#mb288a760de" x="385.935234" y="107.564545" style="fill: #008000; fill-opacity: 0.8; stroke: #008000; stroke-opacity: 0.8"/>
     <use xlink:href="#mb288a760de" x="269.522034" y="153.67" style="fill: #008000; fill-opacity: 0.8; stroke: #008000; stroke-opacity: 0.8"/>
     <use xlink:href="#mb288a760de" x="197.562694" y="153.67" style="fill: #008000; fill-opacity: 0.8; stroke: #008000; stroke-opacity: 0.8"/>
     <use xlink:href="#mb288a760de" x="211.501549" y="199.775455" style="fill: #008000; fill-opacity: 0.8; stroke: #008000; stroke-opacity: 0.8"/>
     <use xlink:href="#mb288a760de" x="236.765724" y="188.249091" style="fill: #008000; fill-opacity: 0.8; stroke: #008000; stroke-opacity: 0.8"/>
     <use xlink:href="#mb288a760de" x="156.06292" y="153.67" style="fill: #008000; fill-opacity: 0.8; stroke: #008000; stroke-opacity: 0.8"/>
     <use xlink:href="#mb288a760de" x="231.855445" y="176.722727" style="fill: #008000; fill-opacity: 0.8; stroke: #008000; stroke-opacity: 0.8"/>
     <use xlink:href="#mb288a760de" x="251.227286" y="84.511818" style="fill: #008000; fill-opacity: 0.8; stroke: #008000; stroke-opacity: 0.8"/>
     <use xlink:href="#mb288a760de" x="198.066167" y="176.722727" style="fill: #008000; fill-opacity: 0.8; stroke: #008000; stroke-opacity: 0.8"/>
     <use xlink:href="#mb288a760de" x="209.740915" y="153.67" style="fill: #008000; fill-opacity: 0.8; stroke: #008000; stroke-opacity: 0.8"/>
     <use xlink:href="#mb288a760de" x="225.997053" y="176.722727" style="fill: #008000; fill-opacity: 0.8; stroke: #008000; stroke-opacity: 0.8"/>
     <use xlink:href="#mb288a760de" x="170.817515" y="142.143636" style="fill: #008000; fill-opacity: 0.8; stroke: #008000; stroke-opacity: 0.8"/>
    </g>
   </g>
   <g id="PathCollection_2">
    <defs>
     <path id="m76a85b2e7a" d="M 0 3 
C 0.795609 3 1.55874 2.683901 2.12132 2.12132 
C 2.683901 1.55874 3 0.795609 3 0 
C 3 -0.795609 2.683901 -1.55874 2.12132 -2.12132 
C 1.55874 -2.683901 0.795609 -3 0 -3 
C -0.795609 -3 -1.55874 -2.683901 -2.12132 -2.12132 
C -2.683901 -1.55874 -3 -0.795609 -3 0 
C -3 0.795609 -2.683901 1.55874 -2.12132 2.12132 
C -1.55874 2.683901 -0.795609 3 0 3 
z
" style="stroke: #f08080; stroke-opacity: 0.8"/>
    </defs>
    <g clip-path="url(#pe6463378ed)">
     <use xlink:href="#m76a85b2e7a" x="216.106349" y="84.511818" style="fill: #f08080; fill-opacity: 0.8; stroke: #f08080; stroke-opacity: 0.8"/>
     <use xlink:href="#m76a85b2e7a" x="334.812899" y="130.617273" style="fill: #f08080; fill-opacity: 0.8; stroke: #f08080; stroke-opacity: 0.8"/>
     <use xlink:href="#m76a85b2e7a" x="162.062172" y="84.511818" style="fill: #f08080; fill-opacity: 0.8; stroke: #f08080; stroke-opacity: 0.8"/>
     <use xlink:href="#m76a85b2e7a" x="221.95569" y="96.038182" style="fill: #f08080; fill-opacity: 0.8; stroke: #f08080; stroke-opacity: 0.8"/>
     <use xlink:href="#m76a85b2e7a" x="335.470242" y="72.985455" style="fill: #f08080; fill-opacity: 0.8; stroke: #f08080; stroke-opacity: 0.8"/>
     <use xlink:href="#m76a85b2e7a" x="266.211556" y="84.511818" style="fill: #f08080; fill-opacity: 0.8; stroke: #f08080; stroke-opacity: 0.8"/>
     <use xlink:href="#m76a85b2e7a" x="286.298442" y="84.511818" style="fill: #f08080; fill-opacity: 0.8; stroke: #f08080; stroke-opacity: 0.8"/>
     <use xlink:href="#m76a85b2e7a" x="303.291208" y="119.090909" style="fill: #f08080; fill-opacity: 0.8; stroke: #f08080; stroke-opacity: 0.8"/>
     <use xlink:href="#m76a85b2e7a" x="186.162701" y="119.090909" style="fill: #f08080; fill-opacity: 0.8; stroke: #f08080; stroke-opacity: 0.8"/>
     <use xlink:href="#m76a85b2e7a" x="298.619394" y="130.617273" style="fill: #f08080; fill-opacity: 0.8; stroke: #f08080; stroke-opacity: 0.8"/>
     <use xlink:href="#m76a85b2e7a" x="270.131859" y="84.511818" style="fill: #f08080; fill-opacity: 0.8; stroke: #f08080; stroke-opacity: 0.8"/>
     <use xlink:href="#m76a85b2e7a" x="260.461778" y="84.511818" style="fill: #f08080; fill-opacity: 0.8; stroke: #f08080; stroke-opacity: 0.8"/>
     <use xlink:href="#m76a85b2e7a" x="127.694182" y="107.564545" style="fill: #f08080; fill-opacity: 0.8; stroke: #f08080; stroke-opacity: 0.8"/>
     <use xlink:href="#m76a85b2e7a" x="317.536412" y="165.196364" style="fill: #f08080; fill-opacity: 0.8; stroke: #f08080; stroke-opacity: 0.8"/>
     <use xlink:href="#m76a85b2e7a" x="183.37493" y="130.617273" style="fill: #f08080; fill-opacity: 0.8; stroke: #f08080; stroke-opacity: 0.8"/>
     <use xlink:href="#m76a85b2e7a" x="169.962176" y="142.143636" style="fill: #f08080; fill-opacity: 0.8; stroke: #f08080; stroke-opacity: 0.8"/>
     <use xlink:href="#m76a85b2e7a" x="287.642545" y="96.038182" style="fill: #f08080; fill-opacity: 0.8; stroke: #f08080; stroke-opacity: 0.8"/>
     <use xlink:href="#m76a85b2e7a" x="284.506303" y="107.564545" style="fill: #f08080; fill-opacity: 0.8; stroke: #f08080; stroke-opacity: 0.8"/>
    </g>
   </g>
   <g id="PathCollection_3">
    <defs>
     <path id="m17ae26dd00" d="M 0 3 
C 0.795609 3 1.55874 2.683901 2.12132 2.12132 
C 2.683901 1.55874 3 0.795609 3 0 
C 3 -0.795609 2.683901 -1.55874 2.12132 -2.12132 
C 1.55874 -2.683901 0.795609 -3 0 -3 
C -0.795609 -3 -1.55874 -2.683901 -2.12132 -2.12132 
C -2.683901 -1.55874 -3 -0.795609 -3 0 
C -3 0.795609 -2.683901 1.55874 -2.12132 2.12132 
C -1.55874 2.683901 -0.795609 3 0 3 
z
" style="stroke: #0000ff; stroke-opacity: 0.8"/>
    </defs>
    <g clip-path="url(#pe6463378ed)">
     <use xlink:href="#m17ae26dd00" x="194.426451" y="106.721153" style="fill: #0000ff; fill-opacity: 0.8; stroke: #0000ff; stroke-opacity: 0.8"/>
     <use xlink:href="#m17ae26dd00" x="302.720634" y="106.721153" style="fill: #0000ff; fill-opacity: 0.8; stroke: #0000ff; stroke-opacity: 0.8"/>
     <use xlink:href="#m17ae26dd00" x="297.125945" y="140.456851" style="fill: #0000ff; fill-opacity: 0.8; stroke: #0000ff; stroke-opacity: 0.8"/>
     <use xlink:href="#m17ae26dd00" x="233.007777" y="140.456851" style="fill: #0000ff; fill-opacity: 0.8; stroke: #0000ff; stroke-opacity: 0.8"/>
     <use xlink:href="#m17ae26dd00" x="255.608069" y="95.47592" style="fill: #0000ff; fill-opacity: 0.8; stroke: #0000ff; stroke-opacity: 0.8"/>
     <use xlink:href="#m17ae26dd00" x="321.867065" y="162.947317" style="fill: #0000ff; fill-opacity: 0.8; stroke: #0000ff; stroke-opacity: 0.8"/>
     <use xlink:href="#m17ae26dd00" x="314.656997" y="117.966386" style="fill: #0000ff; fill-opacity: 0.8; stroke: #0000ff; stroke-opacity: 0.8"/>
     <use xlink:href="#m17ae26dd00" x="260.129146" y="140.456851" style="fill: #0000ff; fill-opacity: 0.8; stroke: #0000ff; stroke-opacity: 0.8"/>
     <use xlink:href="#m17ae26dd00" x="228.794441" y="140.456851" style="fill: #0000ff; fill-opacity: 0.8; stroke: #0000ff; stroke-opacity: 0.8"/>
     <use xlink:href="#m17ae26dd00" x="338.908047" y="151.702084" style="fill: #0000ff; fill-opacity: 0.8; stroke: #0000ff; stroke-opacity: 0.8"/>
     <use xlink:href="#m17ae26dd00" x="214.352678" y="117.966386" style="fill: #0000ff; fill-opacity: 0.8; stroke: #0000ff; stroke-opacity: 0.8"/>
     <use xlink:href="#m17ae26dd00" x="313.35023" y="106.721153" style="fill: #0000ff; fill-opacity: 0.8; stroke: #0000ff; stroke-opacity: 0.8"/>
     <use xlink:href="#m17ae26dd00" x="253.143879" y="151.702084" style="fill: #0000ff; fill-opacity: 0.8; stroke: #0000ff; stroke-opacity: 0.8"/>
     <use xlink:href="#m17ae26dd00" x="126.997239" y="162.947317" style="fill: #0000ff; fill-opacity: 0.8; stroke: #0000ff; stroke-opacity: 0.8"/>
     <use xlink:href="#m17ae26dd00" x="261.554711" y="252.90918" style="fill: #0000ff; fill-opacity: 0.8; stroke: #0000ff; stroke-opacity: 0.8"/>
     <use xlink:href="#m17ae26dd00" x="310.791524" y="117.966386" style="fill: #0000ff; fill-opacity: 0.8; stroke: #0000ff; stroke-opacity: 0.8"/>
     <use xlink:href="#m17ae26dd00" x="224.843025" y="140.456851" style="fill: #0000ff; fill-opacity: 0.8; stroke: #0000ff; stroke-opacity: 0.8"/>
     <use xlink:href="#m17ae26dd00" x="271.488408" y="140.456851" style="fill: #0000ff; fill-opacity: 0.8; stroke: #0000ff; stroke-opacity: 0.8"/>
    </g>
   </g>
   <g id="PathCollection_4">
    <defs>
     <path id="me1c875e7aa" d="M 0 3 
C 0.795609 3 1.55874 2.683901 2.12132 2.12132 
C 2.683901 1.55874 3 0.795609 3 0 
C 3 -0.795609 2.683901 -1.55874 2.12132 -2.12132 
C 1.55874 -2.683901 0.795609 -3 0 -3 
C -0.795609 -3 -1.55874 -2.683901 -2.12132 -2.12132 
C -2.683901 -1.55874 -3 -0.795609 -3 0 
C -3 0.795609 -2.683901 1.55874 -2.12132 2.12132 
C -1.55874 2.683901 -0.795609 3 0 3 
z
" style="stroke: #8b0000; stroke-opacity: 0.8"/>
    </defs>
    <g clip-path="url(#pe6463378ed)">
     <use xlink:href="#me1c875e7aa" x="353.704678" y="95.47592" style="fill: #8b0000; fill-opacity: 0.8; stroke: #8b0000; stroke-opacity: 0.8"/>
     <use xlink:href="#me1c875e7aa" x="212.400142" y="117.966386" style="fill: #8b0000; fill-opacity: 0.8; stroke: #8b0000; stroke-opacity: 0.8"/>
     <use xlink:href="#me1c875e7aa" x="260.648459" y="129.211619" style="fill: #8b0000; fill-opacity: 0.8; stroke: #8b0000; stroke-opacity: 0.8"/>
     <use xlink:href="#me1c875e7aa" x="281.22263" y="95.47592" style="fill: #8b0000; fill-opacity: 0.8; stroke: #8b0000; stroke-opacity: 0.8"/>
     <use xlink:href="#me1c875e7aa" x="287.832621" y="129.211619" style="fill: #8b0000; fill-opacity: 0.8; stroke: #8b0000; stroke-opacity: 0.8"/>
     <use xlink:href="#me1c875e7aa" x="301.299943" y="84.230687" style="fill: #8b0000; fill-opacity: 0.8; stroke: #8b0000; stroke-opacity: 0.8"/>
     <use xlink:href="#me1c875e7aa" x="340.596793" y="129.211619" style="fill: #8b0000; fill-opacity: 0.8; stroke: #8b0000; stroke-opacity: 0.8"/>
     <use xlink:href="#me1c875e7aa" x="201.047407" y="106.721153" style="fill: #8b0000; fill-opacity: 0.8; stroke: #8b0000; stroke-opacity: 0.8"/>
     <use xlink:href="#me1c875e7aa" x="232.425671" y="106.721153" style="fill: #8b0000; fill-opacity: 0.8; stroke: #8b0000; stroke-opacity: 0.8"/>
     <use xlink:href="#me1c875e7aa" x="215.421852" y="140.456851" style="fill: #8b0000; fill-opacity: 0.8; stroke: #8b0000; stroke-opacity: 0.8"/>
     <use xlink:href="#me1c875e7aa" x="320.258736" y="84.230687" style="fill: #8b0000; fill-opacity: 0.8; stroke: #8b0000; stroke-opacity: 0.8"/>
     <use xlink:href="#me1c875e7aa" x="298.895108" y="84.230687" style="fill: #8b0000; fill-opacity: 0.8; stroke: #8b0000; stroke-opacity: 0.8"/>
     <use xlink:href="#me1c875e7aa" x="264.120727" y="84.230687" style="fill: #8b0000; fill-opacity: 0.8; stroke: #8b0000; stroke-opacity: 0.8"/>
     <use xlink:href="#me1c875e7aa" x="363.625146" y="95.47592" style="fill: #8b0000; fill-opacity: 0.8; stroke: #8b0000; stroke-opacity: 0.8"/>
     <use xlink:href="#me1c875e7aa" x="211.564907" y="106.721153" style="fill: #8b0000; fill-opacity: 0.8; stroke: #8b0000; stroke-opacity: 0.8"/>
     <use xlink:href="#me1c875e7aa" x="176.405503" y="151.702084" style="fill: #8b0000; fill-opacity: 0.8; stroke: #8b0000; stroke-opacity: 0.8"/>
     <use xlink:href="#me1c875e7aa" x="306.46" y="106.721153" style="fill: #8b0000; fill-opacity: 0.8; stroke: #8b0000; stroke-opacity: 0.8"/>
     <use xlink:href="#me1c875e7aa" x="232.636112" y="84.230687" style="fill: #8b0000; fill-opacity: 0.8; stroke: #8b0000; stroke-opacity: 0.8"/>
    </g>
   </g>
   <g id="matplotlib.axis_1">
    <g id="xtick_1">
     <g id="line2d_1">
      <defs>
       <path id="m4f1bffeb47" d="M 0 0 
L 0 3.5 
" style="stroke: #000000; stroke-width: 0.8"/>
      </defs>
      <g>
       <use xlink:href="#m4f1bffeb47" x="47.72" y="534.04" style="stroke: #000000; stroke-width: 0.8"/>
      </g>
     </g>
     <g id="text_1">
      <!-- 0 -->
      <g transform="translate(44.53875 548.638438) scale(0.1 -0.1)">
       <defs>
        <path id="DejaVuSans-30" d="M 2034 4250 
Q 1547 4250 1301 3770 
Q 1056 3291 1056 2328 
Q 1056 1369 1301 889 
Q 1547 409 2034 409 
Q 2525 409 2770 889 
Q 3016 1369 3016 2328 
Q 3016 3291 2770 3770 
Q 2525 4250 2034 4250 
z
M 2034 4750 
Q 2819 4750 3233 4129 
Q 3647 3509 3647 2328 
Q 3647 1150 3233 529 
Q 2819 -91 2034 -91 
Q 1250 -91 836 529 
Q 422 1150 422 2328 
Q 422 3509 836 4129 
Q 1250 4750 2034 4750 
z
" transform="scale(0.015625)"/>
       </defs>
       <use xlink:href="#DejaVuSans-30"/>
      </g>
     </g>
    </g>
    <g id="xtick_2">
     <g id="line2d_2">
      <g>
       <use xlink:href="#m4f1bffeb47" x="141.807273" y="534.04" style="stroke: #000000; stroke-width: 0.8"/>
      </g>
     </g>
     <g id="text_2">
      <!-- 1 -->
      <g transform="translate(138.626023 548.638438) scale(0.1 -0.1)">
       <defs>
        <path id="DejaVuSans-31" d="M 794 531 
L 1825 531 
L 1825 4091 
L 703 3866 
L 703 4441 
L 1819 4666 
L 2450 4666 
L 2450 531 
L 3481 531 
L 3481 0 
L 794 0 
L 794 531 
z
" transform="scale(0.015625)"/>
       </defs>
       <use xlink:href="#DejaVuSans-31"/>
      </g>
     </g>
    </g>
    <g id="xtick_3">
     <g id="line2d_3">
      <g>
       <use xlink:href="#m4f1bffeb47" x="235.894545" y="534.04" style="stroke: #000000; stroke-width: 0.8"/>
      </g>
     </g>
     <g id="text_3">
      <!-- 2 -->
      <g transform="translate(232.713295 548.638438) scale(0.1 -0.1)">
       <defs>
        <path id="DejaVuSans-32" d="M 1228 531 
L 3431 531 
L 3431 0 
L 469 0 
L 469 531 
Q 828 903 1448 1529 
Q 2069 2156 2228 2338 
Q 2531 2678 2651 2914 
Q 2772 3150 2772 3378 
Q 2772 3750 2511 3984 
Q 2250 4219 1831 4219 
Q 1534 4219 1204 4116 
Q 875 4013 500 3803 
L 500 4441 
Q 881 4594 1212 4672 
Q 1544 4750 1819 4750 
Q 2544 4750 2975 4387 
Q 3406 4025 3406 3419 
Q 3406 3131 3298 2873 
Q 3191 2616 2906 2266 
Q 2828 2175 2409 1742 
Q 1991 1309 1228 531 
z
" transform="scale(0.015625)"/>
       </defs>
       <use xlink:href="#DejaVuSans-32"/>
      </g>
     </g>
    </g>
    <g id="xtick_4">
     <g id="line2d_4">
      <g>
       <use xlink:href="#m4f1bffeb47" x="329.981818" y="534.04" style="stroke: #000000; stroke-width: 0.8"/>
      </g>
     </g>
     <g id="text_4">
      <!-- 3 -->
      <g transform="translate(326.800568 548.638438) scale(0.1 -0.1)">
       <defs>
        <path id="DejaVuSans-33" d="M 2597 2516 
Q 3050 2419 3304 2112 
Q 3559 1806 3559 1356 
Q 3559 666 3084 287 
Q 2609 -91 1734 -91 
Q 1441 -91 1130 -33 
Q 819 25 488 141 
L 488 750 
Q 750 597 1062 519 
Q 1375 441 1716 441 
Q 2309 441 2620 675 
Q 2931 909 2931 1356 
Q 2931 1769 2642 2001 
Q 2353 2234 1838 2234 
L 1294 2234 
L 1294 2753 
L 1863 2753 
Q 2328 2753 2575 2939 
Q 2822 3125 2822 3475 
Q 2822 3834 2567 4026 
Q 2313 4219 1838 4219 
Q 1578 4219 1281 4162 
Q 984 4106 628 3988 
L 628 4550 
Q 988 4650 1302 4700 
Q 1616 4750 1894 4750 
Q 2613 4750 3031 4423 
Q 3450 4097 3450 3541 
Q 3450 3153 3228 2886 
Q 3006 2619 2597 2516 
z
" transform="scale(0.015625)"/>
       </defs>
       <use xlink:href="#DejaVuSans-33"/>
      </g>
     </g>
    </g>
    <g id="xtick_5">
     <g id="line2d_5">
      <g>
       <use xlink:href="#m4f1bffeb47" x="424.069091" y="534.04" style="stroke: #000000; stroke-width: 0.8"/>
      </g>
     </g>
     <g id="text_5">
      <!-- 4 -->
      <g transform="translate(420.887841 548.638438) scale(0.1 -0.1)">
       <defs>
        <path id="DejaVuSans-34" d="M 2419 4116 
L 825 1625 
L 2419 1625 
L 2419 4116 
z
M 2253 4666 
L 3047 4666 
L 3047 1625 
L 3713 1625 
L 3713 1100 
L 3047 1100 
L 3047 0 
L 2419 0 
L 2419 1100 
L 313 1100 
L 313 1709 
L 2253 4666 
z
" transform="scale(0.015625)"/>
       </defs>
       <use xlink:href="#DejaVuSans-34"/>
      </g>
     </g>
    </g>
    <g id="xtick_6">
     <g id="line2d_6">
      <g>
       <use xlink:href="#m4f1bffeb47" x="518.156364" y="534.04" style="stroke: #000000; stroke-width: 0.8"/>
      </g>
     </g>
     <g id="text_6">
      <!-- 5 -->
      <g transform="translate(514.975114 548.638438) scale(0.1 -0.1)">
       <defs>
        <path id="DejaVuSans-35" d="M 691 4666 
L 3169 4666 
L 3169 4134 
L 1269 4134 
L 1269 2991 
Q 1406 3038 1543 3061 
Q 1681 3084 1819 3084 
Q 2600 3084 3056 2656 
Q 3513 2228 3513 1497 
Q 3513 744 3044 326 
Q 2575 -91 1722 -91 
Q 1428 -91 1123 -41 
Q 819 9 494 109 
L 494 744 
Q 775 591 1075 516 
Q 1375 441 1709 441 
Q 2250 441 2565 725 
Q 2881 1009 2881 1497 
Q 2881 1984 2565 2268 
Q 2250 2553 1709 2553 
Q 1456 2553 1204 2497 
Q 953 2441 691 2322 
L 691 4666 
z
" transform="scale(0.015625)"/>
       </defs>
       <use xlink:href="#DejaVuSans-35"/>
      </g>
     </g>
    </g>
    <g id="text_7">
     <!-- Distance -->
     <g transform="translate(284.5975 562.316562) scale(0.1 -0.1)">
      <defs>
       <path id="DejaVuSans-44" d="M 1259 4147 
L 1259 519 
L 2022 519 
Q 2988 519 3436 956 
Q 3884 1394 3884 2338 
Q 3884 3275 3436 3711 
Q 2988 4147 2022 4147 
L 1259 4147 
z
M 628 4666 
L 1925 4666 
Q 3281 4666 3915 4102 
Q 4550 3538 4550 2338 
Q 4550 1131 3912 565 
Q 3275 0 1925 0 
L 628 0 
L 628 4666 
z
" transform="scale(0.015625)"/>
       <path id="DejaVuSans-69" d="M 603 3500 
L 1178 3500 
L 1178 0 
L 603 0 
L 603 3500 
z
M 603 4863 
L 1178 4863 
L 1178 4134 
L 603 4134 
L 603 4863 
z
" transform="scale(0.015625)"/>
       <path id="DejaVuSans-73" d="M 2834 3397 
L 2834 2853 
Q 2591 2978 2328 3040 
Q 2066 3103 1784 3103 
Q 1356 3103 1142 2972 
Q 928 2841 928 2578 
Q 928 2378 1081 2264 
Q 1234 2150 1697 2047 
L 1894 2003 
Q 2506 1872 2764 1633 
Q 3022 1394 3022 966 
Q 3022 478 2636 193 
Q 2250 -91 1575 -91 
Q 1294 -91 989 -36 
Q 684 19 347 128 
L 347 722 
Q 666 556 975 473 
Q 1284 391 1588 391 
Q 1994 391 2212 530 
Q 2431 669 2431 922 
Q 2431 1156 2273 1281 
Q 2116 1406 1581 1522 
L 1381 1569 
Q 847 1681 609 1914 
Q 372 2147 372 2553 
Q 372 3047 722 3315 
Q 1072 3584 1716 3584 
Q 2034 3584 2315 3537 
Q 2597 3491 2834 3397 
z
" transform="scale(0.015625)"/>
       <path id="DejaVuSans-74" d="M 1172 4494 
L 1172 3500 
L 2356 3500 
L 2356 3053 
L 1172 3053 
L 1172 1153 
Q 1172 725 1289 603 
Q 1406 481 1766 481 
L 2356 481 
L 2356 0 
L 1766 0 
Q 1100 0 847 248 
Q 594 497 594 1153 
L 594 3053 
L 172 3053 
L 172 3500 
L 594 3500 
L 594 4494 
L 1172 4494 
z
" transform="scale(0.015625)"/>
       <path id="DejaVuSans-61" d="M 2194 1759 
Q 1497 1759 1228 1600 
Q 959 1441 959 1056 
Q 959 750 1161 570 
Q 1363 391 1709 391 
Q 2188 391 2477 730 
Q 2766 1069 2766 1631 
L 2766 1759 
L 2194 1759 
z
M 3341 1997 
L 3341 0 
L 2766 0 
L 2766 531 
Q 2569 213 2275 61 
Q 1981 -91 1556 -91 
Q 1019 -91 701 211 
Q 384 513 384 1019 
Q 384 1609 779 1909 
Q 1175 2209 1959 2209 
L 2766 2209 
L 2766 2266 
Q 2766 2663 2505 2880 
Q 2244 3097 1772 3097 
Q 1472 3097 1187 3025 
Q 903 2953 641 2809 
L 641 3341 
Q 956 3463 1253 3523 
Q 1550 3584 1831 3584 
Q 2591 3584 2966 3190 
Q 3341 2797 3341 1997 
z
" transform="scale(0.015625)"/>
       <path id="DejaVuSans-6e" d="M 3513 2113 
L 3513 0 
L 2938 0 
L 2938 2094 
Q 2938 2591 2744 2837 
Q 2550 3084 2163 3084 
Q 1697 3084 1428 2787 
Q 1159 2491 1159 1978 
L 1159 0 
L 581 0 
L 581 3500 
L 1159 3500 
L 1159 2956 
Q 1366 3272 1645 3428 
Q 1925 3584 2291 3584 
Q 2894 3584 3203 3211 
Q 3513 2838 3513 2113 
z
" transform="scale(0.015625)"/>
       <path id="DejaVuSans-63" d="M 3122 3366 
L 3122 2828 
Q 2878 2963 2633 3030 
Q 2388 3097 2138 3097 
Q 1578 3097 1268 2742 
Q 959 2388 959 1747 
Q 959 1106 1268 751 
Q 1578 397 2138 397 
Q 2388 397 2633 464 
Q 2878 531 3122 666 
L 3122 134 
Q 2881 22 2623 -34 
Q 2366 -91 2075 -91 
Q 1284 -91 818 406 
Q 353 903 353 1747 
Q 353 2603 823 3093 
Q 1294 3584 2113 3584 
Q 2378 3584 2631 3529 
Q 2884 3475 3122 3366 
z
" transform="scale(0.015625)"/>
       <path id="DejaVuSans-65" d="M 3597 1894 
L 3597 1613 
L 953 1613 
Q 991 1019 1311 708 
Q 1631 397 2203 397 
Q 2534 397 2845 478 
Q 3156 559 3463 722 
L 3463 178 
Q 3153 47 2828 -22 
Q 2503 -91 2169 -91 
Q 1331 -91 842 396 
Q 353 884 353 1716 
Q 353 2575 817 3079 
Q 1281 3584 2069 3584 
Q 2775 3584 3186 3129 
Q 3597 2675 3597 1894 
z
M 3022 2063 
Q 3016 2534 2758 2815 
Q 2500 3097 2075 3097 
Q 1594 3097 1305 2825 
Q 1016 2553 972 2059 
L 3022 2063 
z
" transform="scale(0.015625)"/>
      </defs>
      <use xlink:href="#DejaVuSans-44"/>
      <use xlink:href="#DejaVuSans-69" x="77.001953"/>
      <use xlink:href="#DejaVuSans-73" x="104.785156"/>
      <use xlink:href="#DejaVuSans-74" x="156.884766"/>
      <use xlink:href="#DejaVuSans-61" x="196.09375"/>
      <use xlink:href="#DejaVuSans-6e" x="257.373047"/>
      <use xlink:href="#DejaVuSans-63" x="320.751953"/>
      <use xlink:href="#DejaVuSans-65" x="375.732422"/>
     </g>
    </g>
   </g>
   <g id="matplotlib.axis_2">
    <g id="ytick_1">
     <g id="line2d_7">
      <defs>
       <path id="mb355930b4a" d="M 0 0 
L -3.5 0 
" style="stroke: #000000; stroke-width: 0.8"/>
      </defs>
      <g>
       <use xlink:href="#mb355930b4a" x="47.72" y="534.04" style="stroke: #000000; stroke-width: 0.8"/>
      </g>
     </g>
     <g id="text_8">
      <!-- 0.0 -->
      <g transform="translate(24.816875 537.839219) scale(0.1 -0.1)">
       <defs>
        <path id="DejaVuSans-2e" d="M 684 794 
L 1344 794 
L 1344 0 
L 684 0 
L 684 794 
z
" transform="scale(0.015625)"/>
       </defs>
       <use xlink:href="#DejaVuSans-30"/>
       <use xlink:href="#DejaVuSans-2e" x="63.623047"/>
       <use xlink:href="#DejaVuSans-30" x="95.410156"/>
      </g>
     </g>
    </g>
    <g id="ytick_2">
     <g id="line2d_8">
      <g>
       <use xlink:href="#mb355930b4a" x="47.72" y="441.829091" style="stroke: #000000; stroke-width: 0.8"/>
      </g>
     </g>
     <g id="text_9">
      <!-- 0.2 -->
      <g transform="translate(24.816875 445.62831) scale(0.1 -0.1)">
       <use xlink:href="#DejaVuSans-30"/>
       <use xlink:href="#DejaVuSans-2e" x="63.623047"/>
       <use xlink:href="#DejaVuSans-32" x="95.410156"/>
      </g>
     </g>
    </g>
    <g id="ytick_3">
     <g id="line2d_9">
      <g>
       <use xlink:href="#mb355930b4a" x="47.72" y="349.618182" style="stroke: #000000; stroke-width: 0.8"/>
      </g>
     </g>
     <g id="text_10">
      <!-- 0.4 -->
      <g transform="translate(24.816875 353.417401) scale(0.1 -0.1)">
       <use xlink:href="#DejaVuSans-30"/>
       <use xlink:href="#DejaVuSans-2e" x="63.623047"/>
       <use xlink:href="#DejaVuSans-34" x="95.410156"/>
      </g>
     </g>
    </g>
    <g id="ytick_4">
     <g id="line2d_10">
      <g>
       <use xlink:href="#mb355930b4a" x="47.72" y="257.407273" style="stroke: #000000; stroke-width: 0.8"/>
      </g>
     </g>
     <g id="text_11">
      <!-- 0.6 -->
      <g transform="translate(24.816875 261.206491) scale(0.1 -0.1)">
       <defs>
        <path id="DejaVuSans-36" d="M 2113 2584 
Q 1688 2584 1439 2293 
Q 1191 2003 1191 1497 
Q 1191 994 1439 701 
Q 1688 409 2113 409 
Q 2538 409 2786 701 
Q 3034 994 3034 1497 
Q 3034 2003 2786 2293 
Q 2538 2584 2113 2584 
z
M 3366 4563 
L 3366 3988 
Q 3128 4100 2886 4159 
Q 2644 4219 2406 4219 
Q 1781 4219 1451 3797 
Q 1122 3375 1075 2522 
Q 1259 2794 1537 2939 
Q 1816 3084 2150 3084 
Q 2853 3084 3261 2657 
Q 3669 2231 3669 1497 
Q 3669 778 3244 343 
Q 2819 -91 2113 -91 
Q 1303 -91 875 529 
Q 447 1150 447 2328 
Q 447 3434 972 4092 
Q 1497 4750 2381 4750 
Q 2619 4750 2861 4703 
Q 3103 4656 3366 4563 
z
" transform="scale(0.015625)"/>
       </defs>
       <use xlink:href="#DejaVuSans-30"/>
       <use xlink:href="#DejaVuSans-2e" x="63.623047"/>
       <use xlink:href="#DejaVuSans-36" x="95.410156"/>
      </g>
     </g>
    </g>
    <g id="ytick_5">
     <g id="line2d_11">
      <g>
       <use xlink:href="#mb355930b4a" x="47.72" y="165.196364" style="stroke: #000000; stroke-width: 0.8"/>
      </g>
     </g>
     <g id="text_12">
      <!-- 0.8 -->
      <g transform="translate(24.816875 168.995582) scale(0.1 -0.1)">
       <defs>
        <path id="DejaVuSans-38" d="M 2034 2216 
Q 1584 2216 1326 1975 
Q 1069 1734 1069 1313 
Q 1069 891 1326 650 
Q 1584 409 2034 409 
Q 2484 409 2743 651 
Q 3003 894 3003 1313 
Q 3003 1734 2745 1975 
Q 2488 2216 2034 2216 
z
M 1403 2484 
Q 997 2584 770 2862 
Q 544 3141 544 3541 
Q 544 4100 942 4425 
Q 1341 4750 2034 4750 
Q 2731 4750 3128 4425 
Q 3525 4100 3525 3541 
Q 3525 3141 3298 2862 
Q 3072 2584 2669 2484 
Q 3125 2378 3379 2068 
Q 3634 1759 3634 1313 
Q 3634 634 3220 271 
Q 2806 -91 2034 -91 
Q 1263 -91 848 271 
Q 434 634 434 1313 
Q 434 1759 690 2068 
Q 947 2378 1403 2484 
z
M 1172 3481 
Q 1172 3119 1398 2916 
Q 1625 2713 2034 2713 
Q 2441 2713 2670 2916 
Q 2900 3119 2900 3481 
Q 2900 3844 2670 4047 
Q 2441 4250 2034 4250 
Q 1625 4250 1398 4047 
Q 1172 3844 1172 3481 
z
" transform="scale(0.015625)"/>
       </defs>
       <use xlink:href="#DejaVuSans-30"/>
       <use xlink:href="#DejaVuSans-2e" x="63.623047"/>
       <use xlink:href="#DejaVuSans-38" x="95.410156"/>
      </g>
     </g>
    </g>
    <g id="ytick_6">
     <g id="line2d_12">
      <g>
       <use xlink:href="#mb355930b4a" x="47.72" y="72.985455" style="stroke: #000000; stroke-width: 0.8"/>
      </g>
     </g>
     <g id="text_13">
      <!-- 1.0 -->
      <g transform="translate(24.816875 76.784673) scale(0.1 -0.1)">
       <use xlink:href="#DejaVuSans-31"/>
       <use xlink:href="#DejaVuSans-2e" x="63.623047"/>
       <use xlink:href="#DejaVuSans-30" x="95.410156"/>
      </g>
     </g>
    </g>
    <g id="text_14">
     <!-- Percent Correctness -->
     <g transform="translate(18.737187 330.559219) rotate(-90) scale(0.1 -0.1)">
      <defs>
       <path id="DejaVuSans-50" d="M 1259 4147 
L 1259 2394 
L 2053 2394 
Q 2494 2394 2734 2622 
Q 2975 2850 2975 3272 
Q 2975 3691 2734 3919 
Q 2494 4147 2053 4147 
L 1259 4147 
z
M 628 4666 
L 2053 4666 
Q 2838 4666 3239 4311 
Q 3641 3956 3641 3272 
Q 3641 2581 3239 2228 
Q 2838 1875 2053 1875 
L 1259 1875 
L 1259 0 
L 628 0 
L 628 4666 
z
" transform="scale(0.015625)"/>
       <path id="DejaVuSans-72" d="M 2631 2963 
Q 2534 3019 2420 3045 
Q 2306 3072 2169 3072 
Q 1681 3072 1420 2755 
Q 1159 2438 1159 1844 
L 1159 0 
L 581 0 
L 581 3500 
L 1159 3500 
L 1159 2956 
Q 1341 3275 1631 3429 
Q 1922 3584 2338 3584 
Q 2397 3584 2469 3576 
Q 2541 3569 2628 3553 
L 2631 2963 
z
" transform="scale(0.015625)"/>
       <path id="DejaVuSans-20" transform="scale(0.015625)"/>
       <path id="DejaVuSans-43" d="M 4122 4306 
L 4122 3641 
Q 3803 3938 3442 4084 
Q 3081 4231 2675 4231 
Q 1875 4231 1450 3742 
Q 1025 3253 1025 2328 
Q 1025 1406 1450 917 
Q 1875 428 2675 428 
Q 3081 428 3442 575 
Q 3803 722 4122 1019 
L 4122 359 
Q 3791 134 3420 21 
Q 3050 -91 2638 -91 
Q 1578 -91 968 557 
Q 359 1206 359 2328 
Q 359 3453 968 4101 
Q 1578 4750 2638 4750 
Q 3056 4750 3426 4639 
Q 3797 4528 4122 4306 
z
" transform="scale(0.015625)"/>
       <path id="DejaVuSans-6f" d="M 1959 3097 
Q 1497 3097 1228 2736 
Q 959 2375 959 1747 
Q 959 1119 1226 758 
Q 1494 397 1959 397 
Q 2419 397 2687 759 
Q 2956 1122 2956 1747 
Q 2956 2369 2687 2733 
Q 2419 3097 1959 3097 
z
M 1959 3584 
Q 2709 3584 3137 3096 
Q 3566 2609 3566 1747 
Q 3566 888 3137 398 
Q 2709 -91 1959 -91 
Q 1206 -91 779 398 
Q 353 888 353 1747 
Q 353 2609 779 3096 
Q 1206 3584 1959 3584 
z
" transform="scale(0.015625)"/>
      </defs>
      <use xlink:href="#DejaVuSans-50"/>
      <use xlink:href="#DejaVuSans-65" x="56.677734"/>
      <use xlink:href="#DejaVuSans-72" x="118.201172"/>
      <use xlink:href="#DejaVuSans-63" x="157.064453"/>
      <use xlink:href="#DejaVuSans-65" x="212.044922"/>
      <use xlink:href="#DejaVuSans-6e" x="273.568359"/>
      <use xlink:href="#DejaVuSans-74" x="336.947266"/>
      <use xlink:href="#DejaVuSans-20" x="376.15625"/>
      <use xlink:href="#DejaVuSans-43" x="407.943359"/>
      <use xlink:href="#DejaVuSans-6f" x="477.767578"/>
      <use xlink:href="#DejaVuSans-72" x="538.949219"/>
      <use xlink:href="#DejaVuSans-72" x="578.3125"/>
      <use xlink:href="#DejaVuSans-65" x="617.175781"/>
      <use xlink:href="#DejaVuSans-63" x="678.699219"/>
      <use xlink:href="#DejaVuSans-74" x="733.679688"/>
      <use xlink:href="#DejaVuSans-6e" x="772.888672"/>
      <use xlink:href="#DejaVuSans-65" x="836.267578"/>
      <use xlink:href="#DejaVuSans-73" x="897.791016"/>
      <use xlink:href="#DejaVuSans-73" x="949.890625"/>
     </g>
    </g>
   </g>
   <g id="line2d_13">
    <path d="M 146.685872 172.870671 
L 149.102532 172.66102 
L 151.519193 172.451369 
L 153.935853 172.241718 
L 156.352513 172.032067 
L 158.769173 171.822416 
L 161.185833 171.612765 
L 163.602494 171.403114 
L 166.019154 171.193463 
L 168.435814 170.983812 
L 170.852474 170.774161 
L 173.269135 170.56451 
L 175.685795 170.354859 
L 178.102455 170.145208 
L 180.519115 169.935557 
L 182.935775 169.725906 
L 185.352436 169.516255 
L 187.769096 169.306604 
L 190.185756 169.096953 
L 192.602416 168.887302 
L 195.019077 168.677651 
L 197.435737 168.468 
L 199.852397 168.258349 
L 202.269057 168.048698 
L 204.685717 167.839047 
L 207.102378 167.629396 
L 209.519038 167.419745 
L 211.935698 167.210094 
L 214.352358 167.000443 
L 216.769019 166.790792 
L 219.185679 166.581141 
L 221.602339 166.37149 
L 224.018999 166.161839 
L 226.435659 165.952188 
L 228.85232 165.742537 
L 231.26898 165.532886 
L 233.68564 165.323235 
L 236.1023 165.113584 
L 238.518961 164.903933 
L 240.935621 164.694282 
L 243.352281 164.484631 
L 245.768941 164.27498 
L 248.185601 164.065329 
L 250.602262 163.855678 
L 253.018922 163.646027 
L 255.435582 163.436376 
L 257.852242 163.226725 
L 260.268903 163.017074 
L 262.685563 162.807423 
L 265.102223 162.597772 
L 267.518883 162.388121 
L 269.935543 162.17847 
L 272.352204 161.968819 
L 274.768864 161.759168 
L 277.185524 161.549517 
L 279.602184 161.339866 
L 282.018845 161.130215 
L 284.435505 160.920564 
L 286.852165 160.710913 
L 289.268825 160.501262 
L 291.685485 160.291611 
L 294.102146 160.08196 
L 296.518806 159.872309 
L 298.935466 159.662658 
L 301.352126 159.453007 
L 303.768787 159.243356 
L 306.185447 159.033705 
L 308.602107 158.824054 
L 311.018767 158.614403 
L 313.435427 158.404752 
L 315.852088 158.195101 
L 318.268748 157.98545 
L 320.685408 157.775799 
L 323.102068 157.566148 
L 325.518729 157.356497 
L 327.935389 157.146846 
L 330.352049 156.937195 
L 332.768709 156.727544 
L 335.185369 156.517893 
L 337.60203 156.308242 
L 340.01869 156.098591 
L 342.43535 155.88894 
L 344.85201 155.679289 
L 347.268671 155.469638 
L 349.685331 155.259987 
L 352.101991 155.050336 
L 354.518651 154.840685 
L 356.935311 154.631034 
L 359.351972 154.421383 
L 361.768632 154.211732 
L 364.185292 154.002081 
L 366.601952 153.79243 
L 369.018613 153.582779 
L 371.435273 153.373128 
L 373.851933 153.163477 
L 376.268593 152.953826 
L 378.685253 152.744175 
L 381.101914 152.534524 
L 383.518574 152.324873 
L 385.935234 152.115222 
" clip-path="url(#pe6463378ed)" style="fill: none; stroke: #008000; stroke-width: 2.25; stroke-linecap: square"/>
   </g>
   <g id="line2d_14">
    <path d="M 127.694182 106.246121 
L 129.79293 106.257692 
L 131.891678 106.269263 
L 133.990426 106.280834 
L 136.089174 106.292405 
L 138.187922 106.303976 
L 140.28667 106.315547 
L 142.385418 106.327118 
L 144.484167 106.338689 
L 146.582915 106.35026 
L 148.681663 106.361831 
L 150.780411 106.373402 
L 152.879159 106.384973 
L 154.977907 106.396543 
L 157.076655 106.408114 
L 159.175403 106.419685 
L 161.274151 106.431256 
L 163.372899 106.442827 
L 165.471647 106.454398 
L 167.570395 106.465969 
L 169.669144 106.47754 
L 171.767892 106.489111 
L 173.86664 106.500682 
L 175.965388 106.512253 
L 178.064136 106.523824 
L 180.162884 106.535395 
L 182.261632 106.546966 
L 184.36038 106.558536 
L 186.459128 106.570107 
L 188.557876 106.581678 
L 190.656624 106.593249 
L 192.755373 106.60482 
L 194.854121 106.616391 
L 196.952869 106.627962 
L 199.051617 106.639533 
L 201.150365 106.651104 
L 203.249113 106.662675 
L 205.347861 106.674246 
L 207.446609 106.685817 
L 209.545357 106.697388 
L 211.644105 106.708959 
L 213.742853 106.720529 
L 215.841601 106.7321 
L 217.94035 106.743671 
L 220.039098 106.755242 
L 222.137846 106.766813 
L 224.236594 106.778384 
L 226.335342 106.789955 
L 228.43409 106.801526 
L 230.532838 106.813097 
L 232.631586 106.824668 
L 234.730334 106.836239 
L 236.829082 106.84781 
L 238.92783 106.859381 
L 241.026579 106.870952 
L 243.125327 106.882522 
L 245.224075 106.894093 
L 247.322823 106.905664 
L 249.421571 106.917235 
L 251.520319 106.928806 
L 253.619067 106.940377 
L 255.717815 106.951948 
L 257.816563 106.963519 
L 259.915311 106.97509 
L 262.014059 106.986661 
L 264.112807 106.998232 
L 266.211556 107.009803 
L 268.310304 107.021374 
L 270.409052 107.032945 
L 272.5078 107.044515 
L 274.606548 107.056086 
L 276.705296 107.067657 
L 278.804044 107.079228 
L 280.902792 107.090799 
L 283.00154 107.10237 
L 285.100288 107.113941 
L 287.199036 107.125512 
L 289.297785 107.137083 
L 291.396533 107.148654 
L 293.495281 107.160225 
L 295.594029 107.171796 
L 297.692777 107.183367 
L 299.791525 107.194938 
L 301.890273 107.206508 
L 303.989021 107.218079 
L 306.087769 107.22965 
L 308.186517 107.241221 
L 310.285265 107.252792 
L 312.384013 107.264363 
L 314.482762 107.275934 
L 316.58151 107.287505 
L 318.680258 107.299076 
L 320.779006 107.310647 
L 322.877754 107.322218 
L 324.976502 107.333789 
L 327.07525 107.34536 
L 329.173998 107.356931 
L 331.272746 107.368501 
L 333.371494 107.380072 
L 335.470242 107.391643 
" clip-path="url(#pe6463378ed)" style="fill: none; stroke: #f08080; stroke-width: 2.25; stroke-linecap: square"/>
   </g>
   <g id="line2d_15">
    <path d="M 126.997239 146.104566 
L 129.137752 145.985683 
L 131.278265 145.866801 
L 133.418779 145.747918 
L 135.559292 145.629035 
L 137.699805 145.510153 
L 139.840318 145.39127 
L 141.980832 145.272388 
L 144.121345 145.153505 
L 146.261858 145.034623 
L 148.402371 144.91574 
L 150.542884 144.796857 
L 152.683398 144.677975 
L 154.823911 144.559092 
L 156.964424 144.44021 
L 159.104937 144.321327 
L 161.24545 144.202445 
L 163.385964 144.083562 
L 165.526477 143.964679 
L 167.66699 143.845797 
L 169.807503 143.726914 
L 171.948016 143.608032 
L 174.08853 143.489149 
L 176.229043 143.370267 
L 178.369556 143.251384 
L 180.510069 143.132501 
L 182.650582 143.013619 
L 184.791096 142.894736 
L 186.931609 142.775854 
L 189.072122 142.656971 
L 191.212635 142.538089 
L 193.353148 142.419206 
L 195.493662 142.300323 
L 197.634175 142.181441 
L 199.774688 142.062558 
L 201.915201 141.943676 
L 204.055715 141.824793 
L 206.196228 141.705911 
L 208.336741 141.587028 
L 210.477254 141.468145 
L 212.617767 141.349263 
L 214.758281 141.23038 
L 216.898794 141.111498 
L 219.039307 140.992615 
L 221.17982 140.873733 
L 223.320333 140.75485 
L 225.460847 140.635967 
L 227.60136 140.517085 
L 229.741873 140.398202 
L 231.882386 140.27932 
L 234.022899 140.160437 
L 236.163413 140.041555 
L 238.303926 139.922672 
L 240.444439 139.803789 
L 242.584952 139.684907 
L 244.725465 139.566024 
L 246.865979 139.447142 
L 249.006492 139.328259 
L 251.147005 139.209376 
L 253.287518 139.090494 
L 255.428032 138.971611 
L 257.568545 138.852729 
L 259.709058 138.733846 
L 261.849571 138.614964 
L 263.990084 138.496081 
L 266.130598 138.377198 
L 268.271111 138.258316 
L 270.411624 138.139433 
L 272.552137 138.020551 
L 274.69265 137.901668 
L 276.833164 137.782786 
L 278.973677 137.663903 
L 281.11419 137.54502 
L 283.254703 137.426138 
L 285.395216 137.307255 
L 287.53573 137.188373 
L 289.676243 137.06949 
L 291.816756 136.950608 
L 293.957269 136.831725 
L 296.097782 136.712842 
L 298.238296 136.59396 
L 300.378809 136.475077 
L 302.519322 136.356195 
L 304.659835 136.237312 
L 306.800349 136.11843 
L 308.940862 135.999547 
L 311.081375 135.880664 
L 313.221888 135.761782 
L 315.362401 135.642899 
L 317.502915 135.524017 
L 319.643428 135.405134 
L 321.783941 135.286252 
L 323.924454 135.167369 
L 326.064967 135.048486 
L 328.205481 134.929604 
L 330.345994 134.810721 
L 332.486507 134.691839 
L 334.62702 134.572956 
L 336.767533 134.454074 
L 338.908047 134.335191 
" clip-path="url(#pe6463378ed)" style="fill: none; stroke: #0000ff; stroke-width: 2.25; stroke-linecap: square"/>
   </g>
   <g id="line2d_16">
    <path d="M 176.405503 122.447237 
L 178.29661 122.142212 
L 180.187718 121.837187 
L 182.078825 121.532162 
L 183.969933 121.227137 
L 185.86104 120.922112 
L 187.752148 120.617087 
L 189.643255 120.312061 
L 191.534363 120.007036 
L 193.42547 119.702011 
L 195.316578 119.396986 
L 197.207685 119.091961 
L 199.098793 118.786936 
L 200.9899 118.48191 
L 202.881008 118.176885 
L 204.772115 117.87186 
L 206.663223 117.566835 
L 208.55433 117.26181 
L 210.445438 116.956785 
L 212.336545 116.651759 
L 214.227653 116.346734 
L 216.11876 116.041709 
L 218.009868 115.736684 
L 219.900975 115.431659 
L 221.792083 115.126634 
L 223.68319 114.821609 
L 225.574298 114.516583 
L 227.465405 114.211558 
L 229.356513 113.906533 
L 231.24762 113.601508 
L 233.138728 113.296483 
L 235.029835 112.991458 
L 236.920943 112.686432 
L 238.81205 112.381407 
L 240.703158 112.076382 
L 242.594265 111.771357 
L 244.485373 111.466332 
L 246.37648 111.161307 
L 248.267588 110.856281 
L 250.158695 110.551256 
L 252.049803 110.246231 
L 253.940911 109.941206 
L 255.832018 109.636181 
L 257.723126 109.331156 
L 259.614233 109.02613 
L 261.505341 108.721105 
L 263.396448 108.41608 
L 265.287556 108.111055 
L 267.178663 107.80603 
L 269.069771 107.501005 
L 270.960878 107.19598 
L 272.851986 106.890954 
L 274.743093 106.585929 
L 276.634201 106.280904 
L 278.525308 105.975879 
L 280.416416 105.670854 
L 282.307523 105.365829 
L 284.198631 105.060803 
L 286.089738 104.755778 
L 287.980846 104.450753 
L 289.871953 104.145728 
L 291.763061 103.840703 
L 293.654168 103.535678 
L 295.545276 103.230652 
L 297.436383 102.925627 
L 299.327491 102.620602 
L 301.218598 102.315577 
L 303.109706 102.010552 
L 305.000813 101.705527 
L 306.891921 101.400502 
L 308.783028 101.095476 
L 310.674136 100.790451 
L 312.565243 100.485426 
L 314.456351 100.180401 
L 316.347458 99.875376 
L 318.238566 99.570351 
L 320.129673 99.265325 
L 322.020781 98.9603 
L 323.911888 98.655275 
L 325.802996 98.35025 
L 327.694103 98.045225 
L 329.585211 97.7402 
L 331.476318 97.435174 
L 333.367426 97.130149 
L 335.258533 96.825124 
L 337.149641 96.520099 
L 339.040748 96.215074 
L 340.931856 95.910049 
L 342.822963 95.605024 
L 344.714071 95.299998 
L 346.605178 94.994973 
L 348.496286 94.689948 
L 350.387393 94.384923 
L 352.278501 94.079898 
L 354.169608 93.774873 
L 356.060716 93.469847 
L 357.951823 93.164822 
L 359.842931 92.859797 
L 361.734038 92.554772 
L 363.625146 92.249747 
" clip-path="url(#pe6463378ed)" style="fill: none; stroke: #8b0000; stroke-width: 2.25; stroke-linecap: square"/>
   </g>
   <g id="patch_3">
    <path d="M 47.72 534.04 
L 47.72 26.88 
" style="fill: none; stroke: #000000; stroke-width: 0.8; stroke-linejoin: miter; stroke-linecap: square"/>
   </g>
   <g id="patch_4">
    <path d="M 565.2 534.04 
L 565.2 26.88 
" style="fill: none; stroke: #000000; stroke-width: 0.8; stroke-linejoin: miter; stroke-linecap: square"/>
   </g>
   <g id="patch_5">
    <path d="M 47.72 534.04 
L 565.2 534.04 
" style="fill: none; stroke: #000000; stroke-width: 0.8; stroke-linejoin: miter; stroke-linecap: square"/>
   </g>
   <g id="patch_6">
    <path d="M 47.72 26.88 
L 565.2 26.88 
" style="fill: none; stroke: #000000; stroke-width: 0.8; stroke-linejoin: miter; stroke-linecap: square"/>
   </g>
   <g id="text_15">
    <!-- Correctness vs. Distance -->
    <g transform="translate(232.184687 20.88) scale(0.12 -0.12)">
     <defs>
      <path id="DejaVuSans-76" d="M 191 3500 
L 800 3500 
L 1894 563 
L 2988 3500 
L 3597 3500 
L 2284 0 
L 1503 0 
L 191 3500 
z
" transform="scale(0.015625)"/>
     </defs>
     <use xlink:href="#DejaVuSans-43"/>
     <use xlink:href="#DejaVuSans-6f" x="69.824219"/>
     <use xlink:href="#DejaVuSans-72" x="131.005859"/>
     <use xlink:href="#DejaVuSans-72" x="170.369141"/>
     <use xlink:href="#DejaVuSans-65" x="209.232422"/>
     <use xlink:href="#DejaVuSans-63" x="270.755859"/>
     <use xlink:href="#DejaVuSans-74" x="325.736328"/>
     <use xlink:href="#DejaVuSans-6e" x="364.945312"/>
     <use xlink:href="#DejaVuSans-65" x="428.324219"/>
     <use xlink:href="#DejaVuSans-73" x="489.847656"/>
     <use xlink:href="#DejaVuSans-73" x="541.947266"/>
     <use xlink:href="#DejaVuSans-20" x="594.046875"/>
     <use xlink:href="#DejaVuSans-76" x="625.833984"/>
     <use xlink:href="#DejaVuSans-73" x="685.013672"/>
     <use xlink:href="#DejaVuSans-2e" x="737.113281"/>
     <use xlink:href="#DejaVuSans-20" x="768.900391"/>
     <use xlink:href="#DejaVuSans-44" x="800.6875"/>
     <use xlink:href="#DejaVuSans-69" x="877.689453"/>
     <use xlink:href="#DejaVuSans-73" x="905.472656"/>
     <use xlink:href="#DejaVuSans-74" x="957.572266"/>
     <use xlink:href="#DejaVuSans-61" x="996.78125"/>
     <use xlink:href="#DejaVuSans-6e" x="1058.060547"/>
     <use xlink:href="#DejaVuSans-63" x="1121.439453"/>
     <use xlink:href="#DejaVuSans-65" x="1176.419922"/>
    </g>
   </g>
  </g>
 </g>
 <defs>
  <clipPath id="pe6463378ed">
   <rect x="47.72" y="26.88" width="517.48" height="507.16"/>
  </clipPath>
 </defs>
</svg>
